PathFileType	4	(X/Y/Z)	s07c0401.trc
DataRate	CameraRate	NumFrames	NumMarkers	Units	OrigDataRate	OrigDataStartFrame	OrigNumFrames
200	200	5	48	mm	200	750	2000
Frame#	Time	racr			lacr			c7			jug			rlel			rdr			llel			ldr			s2			lic			ric			lasi			rasi			rpsi			lpsi			rgt			lgt			rth1			rth2			rth3			rth4			rlfc			rmfc			rsh1			rsh2			rsh3			rsh4			rlmal			rcal			rtoe			rmt5			lth1			lth2			lth4			lth3			llfc			lmfc			lsh1			lsh2			lsh3			lsh4			llmal			lcal			ltoe			lmt5			SBIKE			LBIKE			RBIKE			
		X1	Y1	Z1	X2	Y2	Z2	X3	Y3	Z3	X4	Y4	Z4	X5	Y5	Z5	X6	Y6	Z6	X7	Y7	Z7	X8	Y8	Z8	X9	Y9	Z9	X10	Y10	Z10	X11	Y11	Z11	X12	Y12	Z12	X13	Y13	Z13	X14	Y14	Z14	X15	Y15	Z15	X16	Y16	Z16	X17	Y17	Z17	X18	Y18	Z18	X19	Y19	Z19	X20	Y20	Z20	X21	Y21	Z21	X22	Y22	Z22	X23	Y23	Z23	X24	Y24	Z24	X25	Y25	Z25	X26	Y26	Z26	X27	Y27	Z27	X28	Y28	Z28	X29	Y29	Z29	X30	Y30	Z30	X31	Y31	Z31	X32	Y32	Z32	X33	Y33	Z33	X34	Y34	Z34	X35	Y35	Z35	X36	Y36	Z36	X37	Y37	Z37	X38	Y38	Z38	X39	Y39	Z39	X40	Y40	Z40	X41	Y41	Z41	X42	Y42	Z42	X43	Y43	Z43	X44	Y44	Z44	X45	Y45	Z45	X46	Y46	Z46	X47	Y47	Z47	X48	Y48	Z48	
750	3.7500	728.071391	1383.710143	-48.936150	744.627180	1410.349035	-365.111382	722.617481	1451.815578	-202.628383	669.964680	1307.076229	-220.325624	481.972379	1118.208589	19.581251	695.118395	950.612975	-72.477494	533.515948	1167.064715	-525.811259	691.955375	936.226301	-441.936695	127.656628	1285.023529	-268.126758	306.299059	1303.381338	-398.168093	289.397176	1299.009804	-107.042533	318.729855	1220.292032	-372.805179	297.753581	1248.282961	-125.040177	157.824857	1319.757301	-216.566121	180.217415	1323.483985	-322.389279	218.041473	1189.054799	-67.585486	222.734651	1152.742247	-428.644512	328.304589	1083.490289	-61.328158	401.444388	1034.721274	-68.395687	444.895683	962.574232	-67.589217	426.625790	1059.842145	-86.069551	521.371079	838.375286	-99.225645	508.806587	825.662984	-204.329222	435.065477	722.773397	-73.631331	406.722629	645.639400	-88.074275	329.285851	590.471410	-86.339391	409.623824	637.823290	-131.212944	237.929814	484.523493	-83.734960	161.678835	453.843561	-110.420122	447.671512	399.223607	-125.575072	367.352693	375.455414	-54.630174	266.401769	1037.049661	-430.438603	318.730078	966.371931	-422.835657	349.614672	979.071333	-409.667359	328.613510	877.991239	-418.268424	356.038116	704.947798	-393.514311	340.504778	691.834209	-298.248079	245.590566	602.288303	-412.928355	198.753590	532.229764	-393.827916	119.858063	489.665917	-400.907947	203.016688	533.388548	-352.118171	14.934888	403.384055	-399.568642	-60.707100	420.825777	-361.362456	130.326011	202.682898	-358.461436	55.651025	241.588907	-419.453760	-262.477064	976.670992	-234.016266	-82.534137	79.770412	-434.903926	-82.544301	79.155302	-37.421679	
751	3.7550	729.574568	1382.819855	-49.293804	744.279191	1410.764357	-365.339902	723.078820	1451.306379	-202.730558	670.605732	1306.503109	-220.998408	481.823537	1118.801350	20.216078	695.147076	950.808709	-72.612646	533.385064	1166.916852	-525.068634	691.665910	936.020702	-441.193693	127.656419	1285.282764	-269.403104	307.364035	1304.026357	-397.556503	288.836885	1298.882935	-106.667131	319.521028	1220.921284	-371.902032	296.618861	1247.865685	-124.261237	157.513727	1319.934345	-217.246902	180.628334	1323.825990	-322.857769	215.592424	1188.210621	-68.117692	224.966989	1153.422062	-429.365666	324.380943	1080.340471	-59.313539	397.145240	1030.325770	-67.392285	439.196616	957.200621	-65.823123	422.052360	1055.500505	-82.995675	513.651941	832.233883	-97.260769	502.577882	818.680241	-202.153461	429.191899	714.906353	-72.497708	403.243849	636.992541	-87.224987	327.107101	579.920062	-86.408426	407.219624	629.521933	-129.753828	239.015224	471.762587	-84.417997	163.804932	439.092907	-111.705873	450.363414	390.347938	-125.660505	370.574269	365.385147	-54.711249	269.617704	1038.384136	-431.172225	322.911150	968.117080	-423.486833	353.686322	981.252713	-410.562007	333.597513	879.831214	-417.888226	362.171956	707.315525	-392.053564	346.318672	694.452496	-296.774012	249.618346	606.895272	-411.970628	201.185892	537.939337	-392.986112	121.354452	497.089191	-400.452675	205.552443	539.015541	-351.410784	14.126198	413.945981	-399.461003	-61.075136	433.083552	-361.956468	126.264741	211.553898	-358.732283	52.183178	251.569021	-419.590183	-262.451128	976.623253	-234.200710	-82.546475	79.649847	-434.960320	-82.544915	79.148134	-37.428111	
752	3.7600	731.073691	1381.915643	-49.847959	743.944342	1411.212453	-365.501305	723.501373	1450.734243	-202.950036	671.006733	1305.893603	-221.317341	482.173025	1119.150555	20.273444	695.068286	950.944855	-72.841358	533.252141	1166.817671	-524.340658	691.365391	935.789207	-440.550353	127.642758	1285.292793	-270.489905	308.211671	1304.408748	-396.901519	288.257964	1298.599569	-106.230916	320.179750	1221.379016	-371.061152	295.462976	1247.148190	-123.401585	157.143009	1319.912283	-217.794046	180.934187	1324.010010	-323.194208	213.119669	1187.051182	-68.400559	226.860295	1153.990953	-429.777237	320.812857	1076.511946	-58.937758	392.716472	1025.699730	-66.420057	433.214237	951.257738	-64.613333	418.126136	1050.221518	-81.313260	506.019186	825.942602	-95.538138	496.128940	812.099504	-200.262281	423.553780	707.127576	-71.252889	399.690818	628.200989	-86.098254	324.828430	569.800246	-86.017378	404.429841	621.181539	-128.408362	239.849042	459.284044	-84.827500	165.299234	425.427451	-112.453984	452.660142	380.611193	-125.246586	372.693922	354.287476	-54.513996	272.430813	1039.304102	-431.901762	326.565189	969.704878	-424.156729	357.269629	983.297230	-411.409856	338.147747	881.551936	-417.666219	368.365576	709.427230	-391.073884	351.869186	697.149093	-295.244656	253.707897	611.596308	-411.250290	203.453580	543.739252	-392.302235	122.446017	504.750069	-399.502679	207.810114	544.790663	-350.550886	13.451330	424.712446	-399.248412	-61.440283	444.943069	-361.942235	122.947307	220.986910	-358.900652	49.423056	261.951209	-419.628288	-262.493769	976.575040	-234.542688	-82.559265	79.563107	-434.993298	-82.569291	79.127823	-37.471845	
753	3.7650	732.553293	1380.969921	-50.512914	743.667020	1411.692223	-365.656972	723.865503	1450.158919	-203.219824	671.209345	1305.424688	-221.456184	482.803717	1119.460547	20.389137	694.948507	951.008885	-73.183432	533.129917	1166.716759	-523.578271	691.132806	935.525424	-440.047788	127.619859	1285.261851	-271.364245	308.973471	1304.620128	-396.098767	287.617312	1298.060507	-105.729287	320.697589	1221.722034	-370.314938	294.306837	1246.503164	-122.460333	156.719523	1319.698326	-218.157851	181.144833	1324.083354	-323.343084	210.684175	1185.754509	-68.735066	228.531228	1154.452116	-429.730164	317.236014	1072.740057	-58.562395	388.172020	1020.883177	-65.505102	426.902492	945.144490	-64.077837	414.091190	1044.701805	-79.741213	498.179630	819.843408	-93.881865	489.578735	805.634836	-198.550546	417.823944	699.629722	-69.955317	389.855954	618.312017	-87.486107	322.582115	559.981796	-85.378104	401.356750	613.139848	-127.038783	240.640108	446.754246	-85.321096	166.512935	412.335732	-112.632813	454.400986	370.441056	-125.023468	374.449247	342.960178	-54.574812	274.823811	1040.152867	-432.585824	329.802082	971.155643	-424.558363	360.329668	985.187104	-411.815436	342.407733	883.232444	-417.614491	374.447385	711.725977	-390.219659	357.373146	699.618934	-293.869267	257.695032	616.316004	-410.348182	205.774005	550.171615	-391.544867	123.828064	512.812400	-398.990631	209.545483	551.237269	-349.467065	13.040909	435.747514	-399.339774	-61.451102	456.208059	-361.669493	120.342748	230.810814	-359.115710	47.141614	272.363034	-419.516118	-262.575717	976.530324	-234.907457	-82.561746	79.467233	-435.004331	-82.576306	79.124483	-37.485501	
754	3.7700	734.051107	1380.096097	-51.226799	743.355100	1412.162011	-365.944437	724.189378	1449.740897	-203.555419	671.399471	1304.981764	-221.755086	483.311033	1119.725274	20.556022	694.767801	951.018989	-73.583791	532.956382	1166.623785	-522.876619	690.967779	935.286717	-439.778530	127.536523	1285.124862	-271.953969	309.459062	1304.729497	-395.451050	286.992121	1297.219621	-105.148705	321.131441	1221.864001	-369.458714	293.222635	1245.698885	-121.453019	156.349688	1319.329871	-218.346026	181.305653	1324.056148	-323.378235	208.539904	1184.310584	-68.901844	229.894688	1154.899704	-430.126010	313.442190	1068.951524	-58.130111	383.534776	1015.913948	-64.672383	420.616441	939.271966	-63.016242	409.954135	1039.146371	-78.201381	490.525161	813.643522	-92.743805	482.617531	799.311035	-197.273139	412.018480	692.289825	-68.810746	384.832831	609.383717	-86.845572	320.156073	550.322774	-84.506049	398.120924	605.017688	-125.714399	240.622885	434.777066	-85.162842	167.369870	400.056662	-112.184922	455.510253	359.916869	-125.187277	376.071345	331.893494	-54.605784	276.826818	1040.833665	-433.171785	332.600367	972.533118	-424.622220	362.944404	986.928802	-411.852206	346.327117	884.814776	-417.669977	380.645026	713.909964	-389.311755	362.978670	702.002946	-292.727678	261.794654	621.184490	-409.771563	208.279275	556.001602	-391.095262	125.474839	520.892872	-398.633044	212.156758	557.110625	-348.891748	12.874007	446.557438	-398.970975	-61.241021	467.943790	-361.695641	118.520887	240.973108	-359.266921	45.630009	283.177115	-419.837851	-262.673116	976.471676	-235.218628	-82.580709	79.401609	-435.021527	-82.586688	79.124330	-37.497765	
